{"title":"Gainsbourg.2010.SWESUB.DVDRip.XviD-Zen_Bud","uid":5757092,"size":1473989534,"categoryP":"video","categoryS":"movies","magnet":"?xt=urn:btih:caf199a1d64e6a150bd6bb44829e3b3dbd37c6cc&amp;dn=Gainsbourg.2010.SWESUB.DVDRip.XviD-Zen_Bud&amp;tr=udp%3A%2F%2Ftracker.openbittorrent.com%3A80&amp;tr=udp%3A%2F%2Fopen.demonii.com%3A1337&amp;tr=udp%3A%2F%2Ftracker.coppersurfer.tk%3A6969&amp;tr=udp%3A%2F%2Fexodus.desync.com%3A6969","seeders":0,"leechers":0,"uploader":"Zen_Bud","files":-1,"time":1281601532,"description":"General\nComplete name                    : Gainsbourg.2010.avi\nFormat                           : AVI\nFile size                        : 1.37 GiB\nDuration                         : 2h 9mn\nOverall bit rate                 : 1 515 Kbps\n\nVideo\nID                               : 0\nFormat                           : MPEG-4 Visual\nCodec ID/Hint                    : XviD\nDuration                         : 2h 9mn\nBit rate                         : 1 390 Kbps\nWidth                            : 720 pixels\nHeight                           : 436 pixels\nDisplay aspect ratio             : 2.35:1\nStream size                      : 1.26 GiB (92%)\nWriting library                  : XviD 1.1.2 (UTC 2006-11-01)\n\nAudio\n\nFormat                           : MPEG Audio\nCodec ID/Hint                    : MP3\nDuration                         : 2h 9mn\nBit rate                         : 112 Kbps\nChannel(s)                       : 2 channels\nSampling rate                    : 48.0 KHz\nStream size                      : 104 MiB (7%)\nWriting library                  : LAME3.98\n\n","torrent":{"xt":"urn:btih:caf199a1d64e6a150bd6bb44829e3b3dbd37c6cc","amp;dn":"Gainsbourg.2010.SWESUB.DVDRip.XviD-Zen_Bud","amp;tr":["udp%3A%2F%2Ftracker.openbittorrent.com%3A80","udp%3A%2F%2Fopen.demonii.com%3A1337","udp%3A%2F%2Ftracker.coppersurfer.tk%3A6969","udp%3A%2F%2Fexodus.desync.com%3A6969"],"infoHash":"caf199a1d64e6a150bd6bb44829e3b3dbd37c6cc","infoHashBuffer":{"type":"Buffer","data":[202,241,153,161,214,78,106,21,11,214,187,68,130,158,59,61,189,55,198,204]},"announce":[],"urlList":[]}}